<?xml version="1.0" standalone="no"?>
<!DOCTYPE svg PUBLIC "-//W3C//DTD SVG 20010904//EN"
 "http://www.w3.org/TR/2001/REC-SVG-20010904/DTD/svg10.dtd">
<svg version="1.0" xmlns="http://www.w3.org/2000/svg"
 width="555.000000pt" height="450.000000pt" viewBox="0 0 555.000000 450.000000"
 preserveAspectRatio="xMidYMid meet">

<g transform="translate(0.000000,450.000000) scale(0.100000,-0.100000)"
fill="#000000" stroke="none">
<path d="M2450 3359 c-96 -6 -145 -26 -199 -83 l-35 -36 296 0 c162 0 319 -5
349 -10 116 -22 217 -101 267 -208 23 -49 27 -70 27 -152 0 -87 -3 -100 -32
-156 -37 -72 -106 -136 -183 -173 l-55 -26 -352 -3 -353 -3 0 -64 0 -64 393
-3 393 -3 68 -34 c78 -40 137 -101 175 -181 21 -46 26 -69 26 -145 0 -77 -4
-98 -27 -147 -37 -79 -98 -142 -177 -181 l-66 -32 -374 -5 -374 -5 47 -43 c82
-75 87 -76 388 -80 248 -3 273 -2 345 18 90 24 148 56 211 114 156 143 200
377 108 572 -40 85 -86 138 -164 190 -31 21 -60 41 -64 44 -5 3 19 34 52 68
150 154 187 369 96 557 -59 119 -139 193 -267 247 -47 19 -78 23 -244 27 -104
4 -228 4 -275 0z"/>
<path d="M2116 3110 c-63 -25 -119 -79 -146 -141 -20 -48 -20 -61 -18 -536 3
-459 4 -490 22 -527 27 -53 80 -104 135 -130 44 -20 60 -21 431 -21 381 0 386
0 435 23 98 45 155 130 155 232 0 89 -16 129 -75 187 -84 82 -95 84 -516 81
l-354 -3 -3 -142 -3 -143 66 0 65 0 0 80 0 80 293 0 c326 0 340 -2 384 -69 28
-42 29 -86 3 -128 -42 -69 -33 -68 -445 -68 -423 0 -420 -1 -456 81 -19 41
-20 66 -17 493 3 436 4 450 24 477 11 15 33 37 48 48 26 20 42 21 342 24 294
3 317 2 358 -17 100 -44 107 -174 13 -231 -30 -18 -52 -20 -289 -20 l-258 0 0
80 0 80 -65 0 -65 0 0 -145 0 -145 318 0 c380 0 398 3 478 84 58 57 74 98 74
187 0 69 -36 146 -88 189 -67 56 -101 60 -466 60 -302 -1 -335 -3 -380 -20z"/>
</g>
</svg>
